# xmcd
#
# Track frame offsets:
#	150
#	15297
#	28627
#	42970
#	60832
#	80455
#	94200
#	112370
#	129845
#	140357
#	153737
#	171217
#	183847
#	199167
#	215707
#	230557
#	244547
#	259720
#	274632
#	296440
#
# Disc length: 4194
#
# Revision: 2
# Processed by: cddbd v1.5.1PL0 Copyright (c) Steve Scherf et al.
# Submitted via: audiograbber 1.82.02
# Normalized: r1:DSETVAR1
#
DISCID=14106014
DTITLE=Various Artist - Get in line
DYEAR=1998
DGENRE=country
TTITLE0=Steps - 5,6,7,8
TTITLE1=The Shamps - Get in line
TTITLE2=Rednex - cotton eye joe
TTITLE3=the grid - swamp thing
TTITLE4=shot to pieces - ain't live wonderful
TTITLE5=chris sayer - it's alright, it's really alright
TTITLE6=aaron woodley - boot scootin' baby
TTITLE7=sean kenny - black coffee
TTITLE8=good ol' greenwood boys - rock the boat
TTITLE9=john p swisshelm - toe tappin' country man
TTITLE10=martin white - there you go
TTITLE11=steve whetton - pointy boots
TTITLE12=freddy weller - r'n'r time capsule
TTITLE13=capricorn - thinkin' bout you
TTITLE14=watermelon henry - love my car
TTITLE15=janis carnes - graggin my chains
TTITLE16=swamp honkys - i must be stupid
TTITLE17=becky hobbs - country girls
TTITLE18=corridor 38 - born in britain
TTITLE19=david christie - saddle up country style
EXTD=
EXTT0=
EXTT1=
EXTT2=
EXTT3=
EXTT4=
EXTT5=
EXTT6=
EXTT7=
EXTT8=
EXTT9=
EXTT10=
EXTT11=
EXTT12=
EXTT13=
EXTT14=
EXTT15=
EXTT16=
EXTT17=
EXTT18=
EXTT19=
PLAYORDER=
